<?xml version="1.0" encoding="UTF-8" standalone="no"?>
<!-- Created with Inkscape (http://www.inkscape.org/) -->

<svg
   width="395.909pt"
   height="494.95499pt"
   viewBox="0 0 139.6679 174.60912"
   version="1.1"
   id="svg5"
   inkscape:version="1.3.2 (091e20e, 2023-11-25, custom)"
   sodipodi:docname="logo.svg"
   inkscape:export-filename="site_icon.png"
   inkscape:export-xdpi="300"
   inkscape:export-ydpi="300"
   xmlns:inkscape="http://www.inkscape.org/namespaces/inkscape"
   xmlns:sodipodi="http://sodipodi.sourceforge.net/DTD/sodipodi-0.dtd"
   xmlns="http://www.w3.org/2000/svg"
   xmlns:svg="http://www.w3.org/2000/svg">
  <sodipodi:namedview
     id="namedview7"
     pagecolor="#ffffff"
     bordercolor="#999999"
     borderopacity="1"
     inkscape:showpageshadow="0"
     inkscape:pageopacity="0"
     inkscape:pagecheckerboard="0"
     inkscape:deskcolor="#d1d1d1"
     inkscape:document-units="mm"
     showgrid="false"
     inkscape:zoom="0.5946522"
     inkscape:cx="-124.44249"
     inkscape:cy="533.92555"
     inkscape:window-width="1920"
     inkscape:window-height="991"
     inkscape:window-x="-9"
     inkscape:window-y="-9"
     inkscape:window-maximized="1"
     inkscape:current-layer="svg5" />
  <defs
     id="defs2" />
  <path
     id="path960"
     style="display:inline;fill:#0f0f0f;fill-opacity:1;stroke-width:0;stroke-linecap:round;paint-order:markers stroke fill"
     d="M 87.304577,0 A 87.304724,87.304724 0 0 0 0,87.304574 87.304724,87.304724 0 0 0 87.304577,174.60912 87.304724,87.304724 0 0 0 139.66594,157.09233 82.813164,82.813164 0 0 1 95.165237,170.11813 82.813164,82.813164 0 0 1 12.351669,87.304574 82.813164,82.813164 0 0 1 95.165237,4.49194 82.813164,82.813164 0 0 1 139.66777,17.51864 87.304724,87.304724 0 0 0 87.304577,0 Z"
     inkscape:export-filename="logo_white.png"
     inkscape:export-xdpi="300"
     inkscape:export-ydpi="300" />
</svg>
